#!OML:ASF F:\VICON\USERDATA\INSTALL\rory3\rory3.ASF
:FULLY-SPECIFIED
:DEGREES
39
root 0.14655120159477536 18.01398564906934 0.3380691894856547 -2.697925214101035 0.8848771761594674 -2.9852099131284326
lfemur 2.304929916178118 -3.630205117655099 -17.814695575967576
ltibia 51.84241997961716
lfoot 12.867977774813252 -16.848607541398508
ltoes -0.4709432826469593
rfemur -18.251771027118505 5.134843086064226 27.16038260794867
rtibia 26.248166797573674
rfoot -8.521642428326908 -4.18900111878866
rtoes 6.277016075727373
lowerback nan -0.8564599620492649 1.326800500883474
upperback 0.28208359261738414 -0.8284347369959923 2.8510353574535685
thorax -4.840366340016384 -0.4464383478802937 1.9050447392028587
lowerneck -16.925799755460595 -2.62263092766623 -2.038008138388079
upperneck 21.43993478902551 -3.2359673349786036 0.42914823130555413
head 9.57302349790333 -1.638916832916025 0.04915890491404029
lclavicle -1.248503628130219e-15 2.669619212644509e-15
lhumerus -24.76193719839793 -3.3292362596324176 84.06952437152476
lradius 30.042737623625385
lwrist 7.234149357365787
lhand -27.795096787984637 22.945493679893506
lfingers nan
lthumb -0.9202244837896474 53.63429852421054
rclavicle -1.1343898787706245e-15 2.789398600827913e-15
rhumerus -32.600543032234356 -26.330291089076905 -75.23888847969171
rradius 19.716365155899382
rwrist 12.846162013481738
rhand -17.580060397720565 nan
rfingers nan
rthumb 8.751692600197265 -7.542692652666712
40
root 0.07342908218520655 18.101897598201404 1.6328249749382895 -3.3265415011511394 0.48117394668970137 -3.9203580612518785
lfemur -4.2972092350542574 -2.197209843536921 -15.66373057807871
ltibia 62.31447163720546
lfoot 12.943376831876666 -15.371207639452207
ltoes 2.7362139004702937
rfemur -15.238797883781613 5.515163088755722 28.99623627121288
rtibia 26.37181932249084
rfoot -10.066092743283715 -4.339378090808389
rtoes 6.42907750234654
lowerback nan -0.4819264966101878 2.2098595020508487
upperback 0.3701633678835554 -0.3308241481565455 2.875554229432791
thorax -4.821762809969233 -0.21527297927682731 1.330890071827398
lowerneck -16.76442122629367 -2.6533484791574202 -2.007595950361787
upperneck 21.435993701742397 -3.281692494760269 0.4607514294635666
head 9.582067040234955 -1.6524212446086546 0.045939730765684
lclavicle -2.08390664276933e-15 -1.3440981328058357e-16
lhumerus -26.272184135318028 -2.9122544003876722 84.3990946293933
lradius 29.44926919497878
lwrist 6.631082088016491
lhand -27.361698372729833 23.50510538501771
lfingers nan
lthumb -0.5915001105606605 54.061573101849355
rclavicle -1.9141476847338275e-15 -4.248352563234539e-17
rhumerus -30.987499253298786 -24.07676614600934 -76.81940613967878
rradius 19.931180068511924
rwrist 12.532149147629553
rhand -17.39154978847209 nan
rfingers nan
rthumb 8.910104822079255 -7.756296948694545
41
root 0.01344852387280221 18.218103022286723 2.5827586818343065 -3.769588361647091 0.5495977966870225 -4.531129640499012
lfemur -10.308033195170747 -0.05668643981333599 -14.436177482429752
ltibia 69.06944548759347
lfoot 6.31930016503646 -12.855792642540464
ltoes -2.305361011025769
rfemur -11.9546633304719 6.113825538419901 29.880347834643125
rtibia 26.10072299816268
rfoot -11.588872239025232 -3.9881383756388753
rtoes 6.766286147089332
lowerback nan -0.15053395802304737 2.727289182930375
upperback 0.43208012696442094 0.18076183265871726 2.7651378652323846
thorax -4.8114782990628004 0.03653462129682161 0.9250777969633551
lowerneck -16.80454553460848 -2.682185708422516 -1.8529670527055802
upperneck 21.50562303973393 -3.3220393488795996 0.37276107024566374
head 9.604309686121525 -1.6845536644922547 0.013491142803973163
lclavicle -1.8026890811823162e-15 -3.5015431294743204e-16
lhumerus -27.78709316931638 -2.4441838106733798 84.64603494000585
lradius 28.84504544906923
lwrist 6.21009072866754
lhand -27.165299060529243 23.834182079298433
lfingers nan
lthumb -0.5258926317005741 54.14965097559121
rclavicle -1.6390639555692617e-15 -1.5342415354339188e-16
rhumerus -29.343818797513837 -21.289064132559034 -78.44159168255467
rradius 20.66941516743762
rwrist 11.212388788188116
rhand -17.322940957009077 nan
rfingers nan
rthumb 8.953242480367955 -7.836912817733706
42
root -0.03250604726179446 18.249432329404687 3.0790205561349895 -4.020904405750803 0.06919636016507758 -4.708310252923392
lfemur -14.686181168716857 2.2734832755200904 -14.23701351289731
ltibia 71.55548024455007
lfoot -0.9067240821233113 -10.548685082540818
ltoes -6.47723705552471
rfemur -9.574924644595532 6.413535758356737 30.318411021630013
rtibia 26.606807016497015
rfoot -12.564455815579837 -3.6319391512324892
rtoes 7.227439271100614
lowerback nan 0.2771907334921098 3.0641315763163073
upperback 0.49186368783155276 0.7769278778303712 2.5741799942526353
thorax -4.783476708557963 0.32926254912297254 0.435059712345759
lowerneck -16.68772821086726 -2.695691206607139 -1.7280541368793279
upperneck 21.481238554159678 -3.354854786552666 0.34377183467551653
head 9.592648552068985 -1.696667377039007 -0.0050543228692100095
lclavicle -1.2510671491280057e-15 1.8864024381723462e-16
lhumerus -29.219995110813898 -1.9302940362806889 84.81965941996161
lradius 28.192054459144266
lwrist 5.938922761323815
lhand -26.954507655596377 24.089915877427025
lfingers nan
lthumb -0.3862042212905348 54.21349850124295
rclavicle -1.5330051804989483e-15 1.1942880942909295e-17
rhumerus -28.04384641789118 -18.301452322625057 -79.81567395967062
rradius 21.864210321691708
rwrist 9.04911685386941
rhand -17.340282136410373 nan
rfingers nan
rthumb 8.897983118019967 -7.853649910666867
43
root -0.06100398394816775 18.25939371799442 3.843225245994713 -4.0279783914328995 -0.42417328355284756 -4.944098438180738
lfemur -18.13054661652545 4.150583596252234 -14.162907092805938
ltibia 70.94029618861214
lfoot -3.881696235523992 -6.151743586530628
ltoes -4.397059069334027
rfemur -7.823790755954448 6.077106918033709 31.01167217094687
rtibia 28.269385780519336
rfoot -12.903829988774598 -3.2778198560697427
rtoes 7.915843998849535
lowerback nan 0.6355357913005816 3.598786922712197
upperback 0.4830622549090107 1.3462003114583039 2.3740735484052204
thorax -4.821018617924426 0.6239625520536518 -0.04587771314247613
lowerneck -16.647073865871896 -2.7299876320167384 -1.6730673229301378
upperneck 21.399615684047127 -3.4158610600126145 0.37352977616297345
head 9.555897096858269 -1.7196982434372992 0.0019450621385340983
lclavicle -1.4769902714172858e-15 2.8431941628435436e-16
lhumerus -30.61422429902544 -1.5110566955959415 84.90088492826108
lradius 27.610044531380236
lwrist 5.70711189850458
lhand -26.84325828647921 24.153771417880503
lfingers nan
lthumb -0.34902868750686944 54.10098391519149
rclavicle -1.491484399407457e-15 2.608746472563099e-16
rhumerus -27.12031723840941 -15.484236364214379 -80.74100352169587
rradius 23.315974119241293
rwrist 7.011981725684338
rhand -17.39043008602453 nan
rfingers nan
rthumb 8.851307117112746 -7.6171097198727
44
root -0.07028134020421845 18.245687204829515 4.51049211813511 -3.7965588003875963 -0.8624993240836467 -5.380173944820195
lfemur -21.43712645830581 4.994848748863054 -14.136058986825297
ltibia 68.245718678879
lfoot -7.0100732588122545 -2.6736676263016
ltoes -3.3343939147596457
rfemur -5.582308092508346 5.9226260309567875 32.018082002985516
rtibia 29.399149054234726
rfoot -12.76955306172648 -2.9309056926167716
rtoes 8.380404566296827
lowerback nan 0.9542694017098152 4.402554509135117
upperback 0.40200391321767803 1.9775526410119373 2.2245421095612308
thorax -4.928138421187159 0.9273263069837137 -0.6330627117342057
lowerneck -16.6289745841523 -2.7533395694281437 -1.6228231596224998
upperneck 21.22233091073041 -3.470363494641132 0.4506301142955741
head 9.491181956657877 -1.7292239879460019 0.018532246066616853
lclavicle -1.763937963016134e-15 4.728173513868346e-17
lhumerus -32.00896795096616 -1.087911134991973 84.88475184419993
lradius 27.111556282445562
lwrist 5.630386086412782
lhand -26.846683914033186 24.039359900837308
lfingers nan
lthumb -0.3443035120401057 53.962911104202306
rclavicle -1.891822455716127e-15 -3.360093558860997e-17
rhumerus -26.380589783124947 -13.338978196770427 -81.21525136156694
rradius 24.798576289827178
rwrist 5.236081478958366
rhand -17.53624162820902 nan
rfingers nan
rthumb 8.692230888794882 -7.173631900285088
45
root -0.0695869395035913 18.204810950580004 5.006008305969862 -3.4047864765822755 -1.4626730916220665 -5.978892541293969
lfemur -24.295755245110744 4.93146198276461 -13.887400025037923
ltibia 63.16828532253868
lfoot -8.44971851481998 2.205051365392605
ltoes -2.61121330826314
rfemur -3.5491526456722706 5.905665773941173 32.76286345530052
rtibia 29.825406108287538
rfoot -12.368448906798985 -2.9944893167355073
rtoes 8.479397037891484
lowerback nan 1.2847749339770074 5.3411531271710855
upperback 0.2970258768801954 2.5387533784904224 2.1517385476950346
thorax -5.040524610883244 1.1814967124868512 -1.194696723271874
lowerneck -16.646316225789487 -2.802054917966908 -1.6419844305969526
upperneck 21.023804143228425 -3.5637699162911085 0.5261428293055979
head 9.416812477669412 -1.7558000750505884 0.023192567231969427
lclavicle -1.1830156241066857e-15 1.5515320205439474e-16
lhumerus -33.21602692632569 -0.35067683093262225 84.74656158277763
lradius 26.49690016380167
lwrist 5.447853905094796
lhand -26.8938598669648 23.844326209688354
lfingers nan
lthumb -0.33125553729376217 53.887777639819596
rclavicle -1.575243964519179e-15 -1.2387592135667302e-16
rhumerus -25.47873986398158 -11.698112463600907 -81.42024320555365
rradius 26.108443821992417
rwrist 3.6419556767083265
rhand -17.706532126598827 nan
rfingers nan
rthumb 8.504694954642392 -6.79959967138883
